<svg width="40" height="40" viewBox="0 0 40 40" fill="none" xmlns="http://www.w3.org/2000/svg">
<path d="M16.7833 4.70007L5.23333 13.9501C3.93333 14.9834 3.09999 17.1667 3.38333 18.8001L5.59999 32.0667C5.99999 34.4334 8.26666 36.3501 10.6667 36.3501H29.3333C31.7167 36.3501 34 34.4167 34.4 32.0667L36.6167 18.8001C36.8833 17.1667 36.05 14.9834 34.7667 13.9501L23.2167 4.71674C21.4333 3.28341 18.55 3.28341 16.7833 4.70007Z" fill="#006EB8"/>
<path d="M21.6667 27.5H18.3334C16.95 27.5 15.8334 28.6167 15.8334 30V35.8333H24.1667V30C24.1667 28.6167 23.05 27.5 21.6667 27.5Z" fill="white" stroke="white" stroke-width="1.5" stroke-miterlimit="10" stroke-linejoin="round"/>
</svg>
