<svg width="40" height="40" viewBox="0 0 40 40" fill="none" xmlns="http://www.w3.org/2000/svg">
<g clip-path="url(#clip0_5545_12311)">
<path d="M28 3.3335H23.6667C18.3333 3.3335 15 6.66683 15 12.0002V18.7502H25.4167C26.1 18.7502 26.6667 19.3168 26.6667 20.0002C26.6667 20.6835 26.1 21.2502 25.4167 21.2502H15V28.0002C15 33.3335 18.3333 36.6668 23.6667 36.6668H27.9833C33.3167 36.6668 36.65 33.3335 36.65 28.0002V12.0002C36.6667 6.66683 33.3333 3.3335 28 3.3335Z" fill="white"/>
<path d="M7.5999 18.7501L11.0499 15.3001C11.2999 15.0501 11.4166 14.7334 11.4166 14.4167C11.4166 14.1001 11.2999 13.7667 11.0499 13.5334C10.5666 13.0501 9.76657 13.0501 9.28324 13.5334L3.6999 19.1167C3.21657 19.6001 3.21657 20.4001 3.6999 20.8834L9.28324 26.4667C9.76657 26.9501 10.5666 26.9501 11.0499 26.4667C11.5332 25.9834 11.5332 25.1834 11.0499 24.7001L7.5999 21.2501H14.9999V18.7501H7.5999Z" fill="white"/>
</g>
<defs>
<clipPath id="clip0_5545_12311">
<rect width="40" height="40" fill="white"/>
</clipPath>
</defs>
</svg>
