<svg width="40" height="40" viewBox="0 0 40 40" fill="none" xmlns="http://www.w3.org/2000/svg">
<path d="M28 3.3335H23.6667C18.3333 3.3335 15 6.66683 15 12.0002V18.7502H22.4L18.95 15.3002C18.7 15.0502 18.5833 14.7335 18.5833 14.4168C18.5833 14.1002 18.7 13.7835 18.95 13.5335C19.4333 13.0502 20.2333 13.0502 20.7167 13.5335L26.3 19.1168C26.7833 19.6002 26.7833 20.4002 26.3 20.8835L20.7167 26.4668C20.2333 26.9502 19.4333 26.9502 18.95 26.4668C18.4667 25.9835 18.4667 25.1835 18.95 24.7002L22.4 21.2502H15V28.0002C15 33.3335 18.3333 36.6668 23.6667 36.6668H27.9833C33.3167 36.6668 36.65 33.3335 36.65 28.0002V12.0002C36.6667 6.66683 33.3333 3.3335 28 3.3335Z" fill="#F6F7F7"/>
<path d="M4.58337 18.75C3.90004 18.75 3.33337 19.3167 3.33337 20C3.33337 20.6833 3.90004 21.25 4.58337 21.25H15V18.75H4.58337Z" fill="#F6F7F7"/>
</svg>
