<svg width="35" height="35" viewBox="0 0 35 35" fill="none" xmlns="http://www.w3.org/2000/svg">
<path d="M23.3333 24.7919V27.7085H2.91663V24.7919C2.91663 24.7919 2.91663 18.9585 13.125 18.9585C23.3333 18.9585 23.3333 24.7919 23.3333 24.7919ZM18.2291 10.9377C18.2291 9.92821 17.9298 8.94137 17.3689 8.10199C16.8081 7.26262 16.0109 6.6084 15.0782 6.22208C14.1456 5.83576 13.1193 5.73468 12.1292 5.93163C11.1391 6.12857 10.2296 6.6147 9.51577 7.32853C8.80194 8.04236 8.31581 8.95183 8.11887 9.94194C7.92192 10.9321 8.023 11.9583 8.40932 12.891C8.79565 13.8237 9.44986 14.6208 10.2892 15.1817C11.1286 15.7425 12.1154 16.0419 13.125 16.0419C14.4787 16.0419 15.7769 15.5041 16.7341 14.5469C17.6914 13.5897 18.2291 12.2914 18.2291 10.9377ZM23.2458 18.9585C24.1423 19.6523 24.8759 20.5342 25.3949 21.542C25.9139 22.5498 26.2058 23.6591 26.25 24.7919V27.7085H32.0833V24.7919C32.0833 24.7919 32.0833 19.4981 23.2458 18.9585ZM21.875 5.83355C20.8713 5.82888 19.8899 6.12891 19.0604 6.69397C19.9462 7.93171 20.4225 9.41563 20.4225 10.9377C20.4225 12.4598 19.9462 13.9437 19.0604 15.1815C19.8899 15.7465 20.8713 16.0466 21.875 16.0419C23.2287 16.0419 24.5269 15.5041 25.4841 14.5469C26.4414 13.5897 26.9791 12.2914 26.9791 10.9377C26.9791 9.58401 26.4414 8.28574 25.4841 7.32853C24.5269 6.37131 23.2287 5.83355 21.875 5.83355Z" fill="#FB7F54"/>
</svg>
