<svg width="40" height="40" viewBox="0 0 40 40" fill="none" xmlns="http://www.w3.org/2000/svg">
<path d="M3.33337 15.0002V10.8335C3.33337 6.6835 6.68337 3.3335 10.8334 3.3335H15" stroke="#5F6570" stroke-width="1.5" stroke-linecap="round" stroke-linejoin="round"/>
<path d="M25 3.3335H29.1667C33.3167 3.3335 36.6667 6.6835 36.6667 10.8335V15.0002" stroke="#5F6570" stroke-width="1.5" stroke-linecap="round" stroke-linejoin="round"/>
<path d="M36.6666 26.6665V29.1665C36.6666 33.3165 33.3166 36.6665 29.1666 36.6665H26.6666" stroke="#5F6570" stroke-width="1.5" stroke-linecap="round" stroke-linejoin="round"/>
<path d="M15 36.6667H10.8334C6.68337 36.6667 3.33337 33.3167 3.33337 29.1667V25" stroke="#5F6570" stroke-width="1.5" stroke-linecap="round" stroke-linejoin="round"/>
<path d="M28.3333 15.8335V24.1668C28.3333 27.5002 26.6666 29.1668 23.3333 29.1668H16.6666C13.3333 29.1668 11.6666 27.5002 11.6666 24.1668V15.8335C11.6666 12.5002 13.3333 10.8335 16.6666 10.8335H23.3333C26.6666 10.8335 28.3333 12.5002 28.3333 15.8335Z" stroke="#5F6570" stroke-width="1.5" stroke-linecap="round" stroke-linejoin="round"/>
<path d="M31.6667 20H8.33337" stroke="#5F6570" stroke-width="1.5" stroke-linecap="round" stroke-linejoin="round"/>
</svg>
